<mxfile host="65bd71144e">
    <diagram id="yQpHTOFkW2VRHLCzOA30" name="Page-1">
        <mxGraphModel dx="1247" dy="617" grid="1" gridSize="10" guides="1" tooltips="1" connect="1" arrows="1" fold="1" page="1" pageScale="1" pageWidth="850" pageHeight="1100" math="0" shadow="0">
            <root>
                <mxCell id="0"/>
                <mxCell id="1" parent="0"/>
                <mxCell id="2" value="" style="shape=image;verticalLabelPosition=bottom;labelBackgroundColor=default;verticalAlign=top;aspect=fixed;imageAspect=0;image=data:image/png,iVBORw0KGgoAAAANSUhEUgAAAosAAAFGCAMAAAA1qiXSAAAC/VBMVEUAAACj6/8AyP8Ayf9o3/8PDw0Fyf+h6P8Ayf8AAABv2v+W5v8o0f9h0v953v+k6f9T2/+j7P8Yzv9Qzf8AAACq6P0AAAABAQGf5/4AAAAGyf+G3/+j5Pw41f8AAAAByP+Q4/8GyP8/yf9H2P8Ix/8Exf8AAAAyxv+BhIcAAAB9gIR1dncLyv8BAQGG5f8AAAAAAAAAAAA/1v8gz/+Z6f8mJiQAAAB9gIUkxv0Eyf8HBwckw/8Dx/8VyP8vzv4Auv8oKCaDhoqur7CjpKSCio6Mj5EtLSun6/6opqSJi40eyf8Gxv+Yqr+bik664e2EhoI2NjWlpaZp3/9y3vt6ho6Gio5X2/88PTurrq/v7/CJjZDNzc20t7mKez7Cw8M7PTyi1eMzstVydHVnaWve3+F2eHrY2dpUVVQ10/+wmHy5l3JaXF9pQyj/uJRHLRrglWyJWDMAAAC8cl7h4uInJyXsonpwRytiPiVsRCnU1tiCUzBQMx5+UDBcOyN5Ti7wpoBVNh90SivjmHDc3uC8vb+oW0zyqoX3rolZOCF9gINMMBzonXWqra8rKymusrTQ0tQvLyyytbgXDwkHBAPKzMwzMzH5sY01IhQOCQeYnJ/DgVzim2qrcVG0tbU9T4HZ2tr////19fW0eVfp6ek5OTX7tI9lQCalbUvx8fHSjGUmGA6OTUE5JRmGiImRlZiNXUBCQ0GFVTKcZ0iHWDktHBIiExCVl5eOkJJUNym3ur0iLkw+Pjx3TC1CKhiIi47LhmKytrrZkGekp6qUY0GtkUYdEQ5UVFR/VDxOTkvu7u67fFjGpVFISUZsbW2fhEGlY1JwSzbExcXqoHm6mkpGJyOdoaQqN1zkn39fFx/TjnFhQTDo2rjSr1UPFCOfn5/Ttm1jY2PHfGTbmXnDiWkaIztyPzb/ya12UT9jNzAcHR18MzHSzLaSYVE+JSBseJp8XkeYUUS8xdTatVu8tKVKU2vXgCZ/iKWll4OHd2GpZB8+JxdfaIDiu2He18brlECePo/uAAAAbHRSTlMA9+rq8hBfBODvPAtQRTYhPfdXTUATgGAcv7IxKEow0S2TVER7at9bEc9i/u1Q9Z+PIPDt9tCvz3TNcmW5jjBvnpb+/jDPYvJoSBql/vb737+v8+3cp/Lv1c+/pICAazX17c/Ht7eAaO+fn4/LYBVMAAAvq0lEQVR42uzBAQEAAACCoP6vbojAAAAAAAAAAAAAAAAAAACAirNrx7ppA2EAxw0Eh7akQ0pNUSuiJDVVpBJIKiElpbDD1iFPcTr5Foy4GJnNYjQDeQIGlAUJtjD2vXr2kR4YO6IiNrrkfkNEJMa/7rvvROaRJAg7krku587QslzpOi+9Go1a7fC01pCEnUpmy2fI35tSUXoNGnLd8fPk4JMk7Ep+qcOBbU+H1NS2H3MsX0gv3H667qAxftmXhAixEAuIsqdzDDzM+9kAOUorNeaLipJzVBQl8xKm+P4hqbB5lYqnqr9IjJ9FjJG7UBYh2kMMgsCxm6OSfIw3hzxyCu89ptV6/ShOVUWM0StW6FiezXUQRDdM3J+7NRYyJN5yIehWyXOONVV1UhQx7kYyS6uazUEgw4QLtEalglz2eIgxTRXj4dhGrkJW4pWsqtU48ePy8ruIMWJJ5Q0i7u51EGRkwmVzG1F/phCaI7BMJ6nyXGODHItxYi9G3JAPV+rJwft3khAyVuIMA1erB9boGHpNnXiHkLKAB221wOUDORnRx6TAm5hrj3w8EjFGIqkgx9igIXYnnTbwMqGP+7sp+8cEXsYYEeWkxJ1TVW2SAM9jIsbIsDNxMNQB0e5NNO1hvSq4AROsMW3naORviUnLajMRj8diIsYorZTY1TTN51DEcCMGWDcfkJWau1tjWpaPE4n4uSfGbx9EjOHJFjwlal3gpffhhnSwznCORt5irMmymkokLmNrMb79KAlhyOQQMaYJ9TRHaz1FCPumpeu6heFTsGUAX2P+YmzIstxMJBJ7nhi/ihjDcVFCxGyxsXQ0//ls9K0RACMWYgBMvhZgzl2M+4ckxupqjL/JQ2NKxBgGelG0MWDjmc1nRrfIH2uzKY1HLybGhk+M5yLGcGTci+IcuFoTzdEDvky4MQP4G5IFhq9tWsQYlWQJEUMduOih2GkBPxYkto5xzF2MtadiFD9ofDZFdzwvuml3NHZVDN6ht4/xjK9HbxFjBJIVNp7p+kzcbncoMiM69W+7vdZK1DZCOYkrTozqkYgxHOxQnOmAzWfiAfjB8P9h8G8bmnTbSzHeIVSSuBIUY/xYxPhsN8UBBGw+B28tfbg5w3mANOnBSLVvneOW1WgOeFumRYyhyhfoocj2Z0dr6xRhH7h0E1qAYOP/YeVl5y97564qRRCE4Q0UFa94BcUrIhiIVwxUfAEzA5+iOBh1N3NjNhsmXAN9gg3EZEGz8d2c3R2tme7pqW53kzpbfyBo4B4436mqvy59ePkXAkZZaNxFbzAoYqmYhKCYVlVQbga9BR0b6Jnpd3Z4+ZdpGOUiayfTgvYZoOlQNGStmOYA+n+G0SYZsP6LnX8Zh/GlwLiP/PwV/irrDLQhHHS5gVeHmhYUFqSq51+ezXjp/TkXxlcC4266cabNzylC4u/lIHp1mRPFYy98LmkYy/angduhv8C4dz1b52dto9jAuOoNiJru7qQAeVnjlYEjtfkc89e/8CsZ/TC+Exj/u1T8aQHinUBDflRXy7Ced603Z1mjSRodUsK4ZCRglO3aSBTXb5L8dlBU4FFunfUFmJbKxyJ0K7pYMl6fMdMkjPcExhjdWZeKJVi9nJWCaRnM2AFjP+1j0awGJSO/LuNsdklg3COKi9xGMTEwrWweuDRWw7TUhnyDXcZH3ErGUwLj/gz0QhO9HFdZghmaUAnTSgaLugt+jZ1pGM8LjKEork9awEaxAI9wmqzCZ4Ga+M8GXjpvB9PsLvgFxv2hSC1DuG3BhPDQMVk6G7Qyjxg2dqZgfHvl/C2B8T9RTBSJIoax8BVaOjBiY+f1jJv6MKJerM8D3z4QGGNRVFgqkigWdlgcOJhUp9GBEesC/YXf+IWEUY5gaBR/2wa6gQAUV9AJI98ARgCdUoHRnb6wztIC475RXKkAFLEdWOF0Rdvs6TrSSjfAOksLjPtCMcP8TKNYDMNi6Rjq1PY1gPJOAlc4yeHopQXG/aBoEvTPJIrYB897CdhK0hst08C2DlhDxyOGHe8tjJcFxmg96W9DqBURFN0dL9zX0WNN79zyNhVMq7A21H4x7HjTMMoRjG/w9324K6OAlBnWdXq4fjM6a9E1/p10LwDAueM9CePphwIjiaLJMD2HoJj0ny+pfDeq1iMnKRBKrC/iR3u9P2MogTFSJx8himpjRgwEKOlaL5iitfd0Xw/+nWaxsdfIFwy3x2gYLwiM9r4irkPM8WieUmYZDG0Bpn0LETmySMxeAFW2TUaWv8pNYIzR0w2KXX5O5hCmjLTa3lGLplkEp1L4ynDHe6OzozB+EhhHdP3f6qzKGgNRKGYwodS7nKNpFufOftA3jqNAP4wn/sJ4UY5g+t0cRCMOxQRseQvGCiLVtbtRKctRoMAYrudnsMcdruIzbl97ldtJOv4jFAD7JqPAGKrHaKHDNfdeY/mPsJYQJ+Ukaf2F4fFLD8aHp8dgvC8w4iH0QgMtMydRdHW0U5JOnCLgB1f74oexlcC41ZPOt9A3BMZBcQ7BLNbYUowMvgb6WrB7CK8H422BcUoniWIRX+pUMSg616ll1f4BsdoOGI+HfREYKb1un1cMiE8DFJWLIt3U0cv0KI92L65T/850+hIA44G/b3K1zdCaTs8IHqJYQBSLNUBVQqQMJun+jgTL6YvASI+hj0g3O4piBiEqCedCKXNvHL6yXPEWGAMGLgtMiMq7otDYqzkuinSzG/5DZqSd/o3n8pjAOKnn7cAl/8dY5snPCB6iWEAoizsGxsJJ0vCb6fLYFIwf1+8of3hwwG/iPcV3Z5XzLUfy+pD6Tw/oIeAS4mW24B+Xvo4Fo/Wo983DfaDxORqXFsWCWJWlVnNoFiOtC9YIAHZf59GMr6ZgPNgHGtuw+Bujj/GhaAgUCRZ3DIyQuB/4i3Ffh4DxQJ8ha8PiN/x+Fx4U+4w2nsEf0dOJD4wKUMZ1LznjhrfA6A2LaBA8KCoA4iKLZBEVzKIadtoVHJ+Gt8A4Ov3rqkVj+RPPgbTCjB3HYryVLgZZOXMCo/7COzDOrnlgPNDXQm/8O4fGuYrjUoqpDS4Im0fnaXRgLIafkzmB8SvbRUaBcXxtMcdBm9vXsxuLKyQ2XNvtHHzWKQ9kMbFi9MoOjJwngQKj61wWGAEzZxvCTsgJlooR+otfXtu73dV0h9tuuTd2YGT3G30jYLz7toXxgN43efPPuYy0acxn20JneDIdIY1pubQOsNJpFm3sm2MXGAXGP+ydPYsUQRCGBQVF/FbwCwUVFEFF0EAFf4GZv8JAbaOeZmem2TEQWTMDFTEyOFEEWT+yEZELBEN/kb09s1sz21NVrUZTbQUeoucd+FxVv1XVb6/iaFuiYWGVmq7UAa6x7cW8710yXbFIleuKP5g+H7mU/g8jqOheiZ6vpaVAt2A2T/yaTtn7HagXstmoB+4XSpPS/2FcxsXVKDrcutHrt03N0EmxjGvp9K8FApvktUDtxFQCiRGB8eqVtGB022I51qoJ5i1DObGMYXF91JJBzSYdGHXEdCcb+fDlP4yd42LDQh1Il6hJX5nHSJdgBL0xu9/BFA+ykwnDlxtbxh4Oxl2pw3h2OYsu1sEzMQuK5SxOuoTEzkpQ2HjAEQGPctzrOpEwHpG/Q7aQLlCQA+HCkFDez+ImgNkAoCsWS3I5x/CJcdR7jDEwXksBxpN+AAimNcEzPzSK3MYNr08y2tSkIJ/yqKsG9fFe3O/DeAaDcUcKMB5aymgzuC1b0SgCRczfKykWKfViydRs2m/w6WgdTf4ExuPCYWxZDGW04S9WZQARHVMC2YzeZ9R0bp40MH4d/SCwhXFnyjCiLFq2QmfRO7HUgTCjF70N/d5W1aZuNwgcfVsneRhX7UXbL8mGbedk1DkvXmtnzKI3POuGoaoX/W4JbR0ext2iYXRjl/dDHocV187JkGPeAL95xrFIJEZL/0wUDlUjpa0TA6Ngs52mRoc1ecLYe2bIcrYOAd7IaabpxFjBsZX64y9jvrffiyPJwthnEZBCshHXiTFzHSqXDY5FSkob5tw6b77T+0LUCw7jHQ/jacEwehZDu03LaOgZQo99gPS0WRZzyge05h3I3LbOFiGxBiO8veHipmAYERaZcccMKjS74pVFuidn6B19Ur3o9pz7WcTsJWkYeyzaTmGsKBTRCo1kMJ5FXJQbpufe9uinY3YdG4Tx1NbEYOyxWIMiKCgUMeFbYNmUZxFJtJCx0SjaA+ULIS3GFYwHKBgl3sjqsajh/9cQKGLgVCQzvKs8Zdat2ZeIPo/1/aH/MA6wCABOKgbFHCmmVaii41mcokWagty0Sx1TOUo6URi7LM6hLFLrX0SFBpqBxVnGsAiREVVY02+0GlFKOk0YDy9vpE66uccwXseP45vSJTe1ztkHsTSdGG1rmPtOxrJOLIx7xHni+Xl04DDGoJj/SU+asxXLeZudCSmlq3aj6KuAO1jRMN4SCGOXxSrWAR7jpcA+Z/pvjrUa1nqJ82QpY6O2C+MeHMZj8mDssmgiUSyJ5yPD2ABZwj9bmROJ0eJjQBeNl/wWWcHCKOpGlntiKAv85OgMlv/hkS4HGPlnK0siMVZUh/GuvANjajC6K6ltYoMKyySwwYELIXVLxlgsxiW0gOuxeE5+L2gMyMC4TSKM54HFKm5AUmKoFPRbgNm/2CcbsDvDR9L52L0YE4dxdSW1fmD+ep+mwrTFBw21fcY/iUUwWwOMKIt3xYmXtGBcsagnPjsaPLmhRGn0Uv+nl/7Pc8h4pHihmC0wGHVtliw+FSdeWhhPpADjodX1aF37UqiZQppRj7+ELKpPnnD4XExoE01G+CqhgNF27r7l+ZJFSesREHvTgBFcxu4a3zvRdBNwSuuKkMXXiw+vIOPhKRdig4RxUgGIHkKYpT8Xc9GgF9s7MO5fh/H6OSkw+vYi7+q1QdTPGqvQnsXvnkUNsoc4MEKTEYXRx7yotK7sfPUzULTXI56LWtXpwbhPPozuaZdpr6Ws4yp06NGIsKgW6vrNG0AZl0UQJQMjxER3zSVyaVPApGD07UX2wlWJVGgw9NYoi5sLOa1KgIwu0rTktusomtXtHNEsJgGjk9Ho0hcEjoihn0t9o9Qrj+QmVF+Cdf4pIlOsowjuEUIbjKnA6FzG3vVTHCVcMkS34F3un0q99Cx+A1nCJ0bSkdHUq0pdmN47w1IbjFEwHtw5dhgPN64RwNWESItTtAONgvNWKeU+WKUsJDz6xAhfi8uNtnf9UDqLETCO29/kMshoMHdC0uIMmbeg/hKewUa8KEW3dYrNDoeM2dPyzFj1rO/ks4jCePuCh3HsBo0gXYiF1RmmOzShWzzUm8rFpmeRVC/Fd/UjLjHqAupzJ+Z3E2ARhfHSBQnWta10AbBwYZH/kYTWH9rjYiNe3IePxMLZd6XUDzYxGm3nQGIvqiRYJGAcv3VtOwGErS+Ld6I3iGelw3htF4ypRbxsWPyOMqa/KRXCOG0ps7bWWltbQHNxYGieBouSYXRTl6VitegaP1YzC6Kb8+nt4tePyodn0bGG/UMexRDGNd0MMxdiw1KSd0RiMDZvu4AKsaQ/Yvx2q377qlHRDx89VKpoWPyJtGteK6UePfEwYj1GXVkftTYoh7J73fJhhIUxXBA/Hj7mWRRFj1fRDF2e3XvkxYtSmHrx+ubXvWcPlQvDD19SZ9Ft7RyXCONFd1xkBXE+KH8rzy6C4qZ629TeR/fu3XuoXrUsDg6lrdMtD91f8zB+n1JTaT7eC92N6GdGkTD+Zu/cdZ0GgjBMQ8Olo0IUCCSoECBoQOIJeJWYMQULInaspEhQUiKlsFxZIqtUFjZ0oMhygeSSBtGGF2HXXnvWXl/iQIFt/sY6J5FOcT7N+J+ZnX0gXhfnWLBTVZlY59iBU2UA+MnboqUxWWCzCMkVTlXGEqu90piWmMfRvXTUp2HOjHWPjP07q3onrS7OEMUKVWFBmhp/JISQ8JrhRuP6ACBYhG9KYEw+Sb4nYIwK7qWTBjvX3TEyPmMw9m6/CWtGf2bofMThq1rrYqooIrpqhYbyx0JLtQGDEcfNyUFNvrYIi1yvgGmnnHzpoPdDWSB/PoxMfYSRV3S+iOrxrMP1KwTzczWKIeGPrZbFu8iDhcbfB0k54M0wLDJxXuPWaZ0xl3QGCyM7jrr78pZpNm87FF2ucb+dNKAIPn8sNaEP4FD20wpBQ8gcAPyilvD67dwXxgEu1DkDxke9hPEhNgDbdkWsiyj6+0g1LIjiYWLs4RUStrEpz9ff87IOZl/+dQ21RYfDNf1vXZphvKLC+LiXMD7FebE2FmUo3kYMIEcJhzRJuQcOk0F5xRC1hJiT+WGRlXUQ7jRFo6yCfVn/ty4jgZE1XczuLAax6DHLCkKI0gfTfo+AZU76Q2aUTczSwkVbmqwNY9k8y0gPcc/YCTBeHwKMF1tTNHqXqdwlUVgkLiRVHApCAkUEbJOD5qBHVlnE4Cn0/3WxDcbbTTD2ZnUtb7p0ZjGAVFQikYbJL4xDCUWUtULQJggjsljK0uYZLA5zzdifwPicw9iPcwf3caS7TiSrdU+xYZfKL5IIB+KAENKlagVgy0EvOBzcw48fmizGa3xGgXFYN1+dDuOlehiv9wZG3nRpVLCf8YcpsWiDkCHYdAWccQiZFiutXq8ka7LOp3F137ZkXoF0Z3Fw9xj8FRiv9gLG1ooOTQccPA+TpQ9CySckskHRYqk1agPhGwlGHE30f0r2JW5gkVQXQ4d1Cdu4YMRFOtVyReEmdnIWSQj4uui5YWcSk3Gc0F/nML7+oqOiY267gTTExcru43AXO7XCeLP3MBYW6cjNNgyBXmKc6TpjEX2yG4Oqxaut1qYf7rfCAdSdLsvZZoncaWJRn/+v6JwM4y0O4z8+Q4Yj3VU3PBu8Zp2BmsfFIKDUtqFKG+aV2/STGsppaKLLiqwsMJr1LBoCRnV28emFMar/MN55+V6aly3/022QeitlKEgQUfuQRcPN5vsJHG5/+fPKnSVzXZZ3FIGR1rM411UY04v1H14YpSphxA3zd/95GAvW5YWphkVXJses8tnUPWJWbgGxfk/ERC/op7DSZs4iOe0O35cjmRfrDOOTfx3Gh/Iind2Ld4pxiSeoaf3EjEF/tfC4RBBlGNc4jTPTZVmplaY5i4byN6tgfDHctU5Dh/GabKPNMov7pKeHrDZOKRiNJHr1jW6kUd4e5i2xc52wqL9RAqMC49Bu7O2qy32GscDitMTiDCAqpdRdA4y/GnwzEqNot5sijqYTu5GoNKbNF5qzSJQziGUYB3nn1WhgvCcPjJUnqAPYlwsmTWOtjlYroz6aOnz0zCM75qV51XzBUr2193WmX4l7Cacpi0Sf1SxPmY9ypHt4MMrlRbPMog+2HU8c+3Bk+um6UWC8bhgv8+rDYk2f23O/WwtA4byj5Xq6vtS26YA37rMriigwfh1rRacDjDf+URhlFtdlFim30S4eiloxbkLbpV7QkcXjRNXMj4FLZnGzkk235yZJ2slY1Gt3Jc/HO6Pzm70zCXEiiMJwDoqKOyIILicRN9CTKwpGQQURRAXxIHjxJIYmaHCNxjCtxgU0agyt3bbjEmiNhkHbUVRGMnGEQM8cAgYiIkHw4IgoKnrxVXUlr5Pq7sQFEkz+yyyd9OnjvfpfvXr12zAuHT2mSWGkLGJ9JcCxCApZ+xWo7JFU3eIin5lRoUhHECReryoBxc3WsTKLe5zm4eKTWMv16NjCOMYZxuGLmhXGJTjVab8Ti7uxpxDFI3nEZRO6Mn6qCR/Ktb+MJuk9jEVcMDrCGGjRDcD/Akb00YGqptVAuR+HMXY9Qv+Kp4y8pmngV9OanlF9VE9fvX2LKPK6WZWZJUPTyAu0XUYq4dpOEQIvv5+xuM/lSoM9rTNI53+FEVk8UXnIKXCs3L0NzrY06CalpwmChmFkJMPIE54yCQTWURcOUKtiZuaEkRZiGrwiYxg6vKIrE6eLxesOnY4vzVUEjuJznop7sQV7F38LxiFNDCNhEUvOh60bIoRFXC52EIZiXRnJV6HULiGdqgfGl+rT0ldigp7yodTMLmGX5NR9K8JCoMziY8cZ8gzGw+da6Djq38DYjHdvsJNXOKIECzw3GItBhqKU1uM0SUM4JEprBkEqrgl6HTBGfEy6AK+pUtyI6XGHV8C/zXCIowEcaNxj1nRmtGD34v8BI7CIc+GtW3METAqKaEanpEYRSujC+95CsVgsFArnhJiRIIGOwghVal6c7dE1jkSWt5PMJvEQ38MbkJxvezlgPj3bXjEyGCe5wjgdYGy204Hmffr7y/MZkMXDjEXTQSR1M6HGOlfKPd1ExWJ3sSCkJQhrXSaMzihe9zFlMsifRFWOjZrOYOQofl42KYfqOBzdsj1jdjBOtYcRtAxgbLIl4wJyUt9mUuxhYmSopaAGQs2bwMSysiz/JCiCkS7Aj4JgQFTrStFsXjsssmqOamhnCwUSW8G65OOMU51P0zQk30SPsrOmLrbLOmUYp9SAcaynqUTHxp/gR4VApDRZDNKolvdRaVkZ9IUyCCoSKN/rgJhGH6MT5iozViXTQi95B8RVGlsFjUZHE3jOwBAWqXCHxU2BWMtvA1phHFeCcbwdjM21ZCTXabCweKyKxYOlqYiiTzVhSXUCif5rP3O5HGHxwUMg6kv0rk66G7AqbpuiUaom9IblHEFRKMVWYVe8BGPoOrdgjGNZ+149w7pb8SDgH8LYVEtGYqT320xnIGxSFqmJZuoK+28pikJY7IbvKcqnXPdxWb6bgcjoFhhFa1CMdXqBaDPNg8gvc7JCLEVhTPLTJnaXWDyCgdFVWhvGumGcjJ9du2Lr5rWexgjNi92Idmpl4myee8lsxKIK0ddc7sqVXKFwVBnM5XpkOXpedd/KE60ozpGJus3Y+r6vD2LrEzncKZAEzRWH2KBvbBG7V98QkxGt3iHhAiNeHrh94YRJ7IMzt1z29pz0rvE0UvOh2o2rRWQRRFiMWKyHHv/wWgFdu2KRcgtgzObZTp6rdQHlT4Vl0LWrOTO2ZhXCc7TPL88xK0P8SzoYi3iooDaM7SqjM4w4unbuyjubJrAsvaE/Gu33Puzf5mmEsJs2zZ+1C5RYDFpgkqC6eFwBPUMUPynKVb8s35Z89klarIiL+t0oJREIpLG1mPv06UouRxL/1Rcx3TYwimUW9+DlM25qVxnrhHHj3od3No0eRlEMR4kuR+UpngYIF4zn6PYfz2LgJrCIrYtU0t0wgLOujGJf+PXx49nsKZalORc8YGUxeZd4n6sK6MwV1DoF9EZP6Dr2BfEsgvbhSHF3HYT5Tu3AWAvGo34C43KC4uWoqcvyDk8DNY8m6Rs2LB67aYFroLzi+/76qLL3K4Ho6+fvhpGUJCPjuGA0nUgJ5M5sb+eLB2cUxBk0CH/1vUiSV0vYT4smHFk8gl0QNXSxXdiphHHU4moYx6++eo3CuGoFoMh0srFJeho44oqwiK0SyKI1NIYGLryjAlcjikHXPsQLkYrdaFVSgch872tLov8KcTL8SHWexGOyiIFxX/sqg38C4/pbFMb7dy6VUQz3eCd5GiKcevfjoO2oeGCxwoJQGgd4j8yziE+Z/6iU9BFovPZscHBw3V5FOTonw0jEr/MsYn/YobqGMM7ytOUG4/j1fgpjT39/lKm/Z2WjjDT2dqcDtpdFI4sWGkOibQNOpAPIi1hgYhDabbxE4ME7cDBU/m+qGEISeYXi3K2s7fnx/wDG9XspjGdOI4p3Znsaq6EjhHPHbG+iTJVZRLgGkEZEMbRbNFNyB1fNwehJPxcMRrBq8w7EUHWZkxeJW4+h1umlY607ysQWxokcjMAig9HLUFz5ZLOncUL3YstiEqhx14UgqEN0GUArMoZDDFiQuLuqhztCHjlqQK2c6OS+ZGwffLHXsJGTliOMjMUKGL1P7jcyQ2NgtCRp7Gd8DNn07xShLPISrUa5xnyy4E3+sNWB9l0Gv9g7v5i2qjCA1wcSiU8mRqMP+rYwGyJ72DSLD26oc8ZlGmP8H/9Fjdrd5kKBbHW0drVd1z9ggcKQZZGBCMKYo6MsOGBdt7kBRRiEsZEJW4yDYdQZ45+o8Tvn3nLa3pbbctt7L3h+pFnGFsLDL98533e+c77l8OTDty7KePtTnyzK6BpFOfThlzTKc6dglgGTIRct4KJUbC3xo9/E8xcvvSedkNvuuRXgZHzKESPjcYf2UY3yQGBkzQlcLJXsIsqspeJrEXm5RAhDl+glZXx2yy1btry+P0bGzVqHRg1sjHtBnp+Y+7lUF5uluwi0iL1cIuxhpFewxGTcssXlipExoH2bb9hRuKsRunXaE7zRKdVFe0ZcbNSlKWMbDYviMv7imYiR8XBgex7q19F2XFM2hYHDlyqz0MWTEl20ZSEuEhnLkycuufTOi4iMr1cXaj1ERnwc+GBe3lsBbedv/76vURJIX7zCBzrPS3TRhA4RJdMpvJ+/a4ls2sz+r98DTU3GN1xXhq9YP4mTcfv2mWGX48/ffntPoySwSrdlw8XmDLtIsukkY/3NVf/nZ5JTlPE+6K1yHBitjpXxcOGVmeHu4O8go6LL9DqIJifiXTwl3cUdWXGRvKMjzFtoW4S4jA85hme0AddoRYyMhR07tQ5HcPTKn38WapRkA8hozrCLTr0zOy6Sdbo8TkWoLK6lrYuiPLpVCzIGY2U8MANVxj5tsFA7c1ijJPksyV+MDMdZVbh4VEcQhsZdpVTFZdmIZOyriJHxTODgAUd3R2Ci4xmNouRGZCQullrU4GJj0pdLOBvLqYrLlHFYay2OlnG/yzpq7YP1u0Phk+kClpeRrNGlelW7iGz8CvXtlEbSFqpiejI6tMUxMo529+08DnmN0r1j61heRuKiUaKLY9DoI52ruqX46ENU3UEJNUNVTFPG4eGmA7EyBs44RvcEN2mU5m5ORmPUoD69Gmo6Pp0IpV9/uOtDuONCC4tp8ubQ8y8Xx8pYEdBqtU/naRTmLhCxiivtLLpol+qiKSvJi5CyY/Cb03vR6bH13bx3irGM8ScwissIfYx+FmgrM0aK3XaJZ4AZWaSv6UQxVrEI2raYLq9UqFNGyF687SzgzZCLdn1mAmOnWFBsY+EMmgX+l0P1Jbk44Doy19ShOhlR9uI/wSLaGMxRaSY1k2cgJGH7aOkubhQUN+RAtb6OPuuUJk94anrCTXPqkxGVdRhuuatrxwcvEqOaJUMyTia/VGD216GgmI/7O9pO00EG6bGpz/3TzaY5t+qWadTgXVVm9uJ8uu0Ew3SOSXOoRJ8hGX2NxMbSLo6jLS2NjSAi8EAOf4fMT+9Fp8f9jjNzc5dCTZvVJWPOOnwQ6EXbL97GUmdqpiSzzU6u8Etmsr6l5cPz9Sc/jaYLm3hHpAeTqaX3otOVsaN3DiJjtboSmJy1G/JRh0Q7LhtjGy9ZUlLRKTZLw5kJGeHndLV+GkO9zot2ivg8HWK6n7q4DBm7e+fmhtWWTd+byyWjZshM/SyiXZ/SrtC+xCpt4WT0ZcTF8pYYFVtL8blf7sY77kKF+tMMdXFZMgb6rKor7eSzGC+6LY13jf5Uzk2cS0c9O2wayTvc0gpEutLoJbp/l868G2TkOQ0b3Dbq4nL2jH2eAdXJWMBi/Fz9GGxM4eDFJvp/mpGNzoy4qNtFZDxfim7m7DODf0CdnwHo0N7VI+NaFsPw9ZK2epv4Ci1uGX4wzyTdxXqURTdgG082dukAfHT+l7/N/xeDoMMpl8ewGmVcl4sPpat26zjqRQ2ypVaycUo+DbQhFzHlXV3lUZMLCSeq6NSrZfF2QI0y5qOM5YTXq+NocIpLlmovo01y00/CTkYi41919NrV8thq3axGGQtwVcds1mFaxKJZc8obQb30unmLLhGfmxmMv4qlle5l8vKhUTXKeDcbdT21Syzq2VPeBzqlNonjKZWJbdy7t/Z0FUtbaZfPi+c8KpQxB+Uvx8r4rZlYkmwSd5G8xSj1bLtLlwSmijaMSeRla6FaZfTyMupt4i7aTfaU9ns2qT0//Jl0mcBF3DP2AE1bpPDEY2rMprGM/JXAfpNYdmtykgEEItZKLy/yS7KggdFLt4rSeVSNdUZORqMOEHvGxKdHzM/qTVl2EdLokzqefbuFz0XQyuJqLXo/wPJvmrToU2lR/PniiCBN9kHABCzOElszt1+0SUxd6kkZZ6/wGR26XVytMsJFLPykfKfeJxavgJMXQcaYddoGjs4WFfVHJrc0g7Q+iZ0RDVHviRuJhWV0bvQql/HeNbi2U663pRIYZy9enCW7Rp/JcvLj+YuY+RE9xqS3SN0uniojgZHMXvey3mO1tcdgx0gf6V6tMuZswOm0vkSsexHL2D8/r0c4S0xO+MbHFwnwDwjJ20V9+d6YYUj7yngXI9DnaFetjJqNSMbzFvFWWnyPYBJ0iVA0P/9x/9TU1AgOjkXcOi210q0vNcZN5jIiG9sWRcynle7VKyM017JnxVsY8TQsk52Mr4T9YWRvOPvl/M/ct3ySbxQyTPzIQugYK9tdxwL0XWR5ZPxAsad27mDZnnTSX/DN5DTZYuwdk6wiP92yP3bi+udGhqe2traOZtFyyGjV7ncoJmMuexoVayQvr85m6RcKz3P5CqHMzPDQUrcsMh50VFgnFJMRGiVapW307CaLZUzyC/IWlEbDBlFQ494LoLbFXJpCZ13GQx2Hzh1UTka4/35UYk+DRA/J6U45BECdkN1elqqokUHGUUfFuc8UlBE2jJegGKM0OEVHRcWyBE/pAGupilmX8fhM0HqQk/EFjSKwrB+qMUrjRGc7DBB/EN2OmsXW0PMWRHZlnJjpm3BhGXcGPc/JPMaSbBjh8E5ZmvU4dQHMCXrFqImErMnYNxwMBLCM5wY8AwOKvFwLG8ZOxRdpmx6nLoBRoOKdtMBNyJqMv4Y273dhGXd6PK4OiIwKVL3vhQqj4os0LlGWMoi4aWu5dB5q9iAy/jMY+u4AJ6PLFRxwuY4rEhlz2To01U9R9AgGiE1eamlnThYhMoKKp3gZD094jgcmPK6+oOcl+SPjA6iqU7JDSWz8djE+eamlY6KzCJHxBqgYvnAByTgBXx7XxIArqERkzEdVHf0OhSBLdCeD2UtdlBWQMfj7YDg0GB4c/O7AYRQV4RPEkfExGSMjWaQVzV6a9QiY9R+fSDP0EDr73N+hLb48GAoNhnBk9Ay49rs8wf0QGT1yRkaySCuVvZAlup8B4hLp3XQkqgy8Nbrz3OXpCyH4WoyMVoUiYz5k0qg/UTGceuAow7FPFwXtiJCBTYcrkIwhiIuhaRQZPVxk/MQV3DzQIfNxICzSrQoGRh9ZouOLOl762mKWITIOosAYxpERoiL6QAF8QO6z6QIodysYGEu4JZq6qBgg4683IDKCjNyeEaLiZvh4KmRvlFjHQhOjcoHRgg9dqIvKATJu+/sykvFCKBwikbFCga4dOJNuSCUw2q5em5rMdPy06RG7qYtKsin09yBExnA4fCoc4iOjJ9K149iqkQ/IXhjxwDg58iVm5Cr310mipeTMpYVJ5GIZvfgnF9v+ng7fuDwYDofARy4yTkRayDpe08gIXJWuhxqjuImYn2d3TM5+jCmanZT+MjJQmtDFE/TpT7l4dfrm9PRlkBHg9owTERkL+2St7NyFyzp6X0omgoLYRJ6RWbvkMxd8/ies6Xjp5XzZePXCzZtYRshgBvFxYICT0bXf2i2rjGvwjtGZkolCZm3SzlxwWBTWuhm6RMtIzqvbBm9CAgMqhqNkdHiKq0HGuzbKNkUeAmN7spcfpkRMxDbapRR0GhjC3qinxehxtKzc/8e2aSRjGJ0I8jIOu86dAxn7mtyGxzUysQYdBMb1jtkbFhYWfrre8z2CqJhJG5ujkuj4njEvPQGUmUe3b5u+gWSE0MjJOBMsPgQyFmrPNFXKJuMdUGNsjculF364NH7sNOHH8eugZFIbiyaXmUSfYgj7onu6c2lLt7zc37ENlXZAxQu4n3E4uGcPyFjYW9PUCzJu1MjDBpb9Nm561bVrO5qvjXx59tvr16+P/4gZR7SPR9NzHYMCZ0O/fRlJdL8xwRJd5qX3UBUgb3sIywixcTr8nVZr3QMyVgz1GoZAxhrDIxo5wEOIGsGMEkHeEkVRhJGFL7//fnz8mICeS5d+WliYupraCm3hExdBRcdYR1VUAtgzhi7c4BKYUKgw2IFkrO4FGWsqZZTxTpy+CI9fbLyHDUWJaFgAK0FLgJg53vPjD2k06AjCYlkbvZ2vFFsdv1dDowSqef+6p5qT0dpUc8RgkFPGtejNMcAeL2NjUVrg+vcPUynm0PVGhmDEJtZWoQfu6F5RfkjXDsh449CeRRmHmuSVEdKXuvpE03cn01ORW5+nUjuIPvk5QzCj/llsYu5GDUUJiIy/fvEFkXGn3DIWcKu0sOR9NQ0Tp3xp9UScJSai4QVoPjS9E60YRMbN3QeLQcbjvUeuRMnolk3GnDX8Km0SlLtTNbHfllZ7DumJqG3z+71eFpFbQB/9VBSQcaL7gBVkrK6pMQxFZKz5RkYZySotPHvJpIlExUZvHaaKXWQNjYnKs+nBbg+Ssdf9zVC0jHIu07BKM4lfgZ+UbqJQxdY6Npa7C/I1FBWQ9xiS8bjBbegdMhwJCGSUIV7k4KPAhK2Mvimp+0Shiv7FYHh3wV130LNnFcHJ2G0wGGCf2CSQcb0MMqJVujVJk4R9qn82WUicTLuVG2DoDF71kjdzhpexJkrGSl5GtxwywmXpniTzMXwlgGUq3sjZVn1JSdq9OUAPHU2gYt5tMiSQcUZOGXNycSej3pTYRZ4xi8UyBVhgGCDCtAwVv6VHK2rm6SNuTka3O0rG4mE5ZYRORn+SwFhCGBsbgw/8WYKxp69iJx3vp2qe7j1iWELGGllkhEuBnYkDo6kkGVTFVUfO+qHeJWR0Z19Gkr5Yki7SQuxpq3iWqqh2YmWsVEZGSF++TRwYbRLDIklbqIrqJ2d9b43SMq7L5QOjkGa73RfBbo+s2c1pqthKVVwR5KyvrFxCxspeGeqM0MnYk+IIXjDSnraKfjqbYGUgkNGt5WTUIhndNTLIiOo69Rl+YIeo2EhbtlcMSWW8IpOMJDBmQ8WzdIrVCiJOxiG3vDKSq/uWzKvYyoCKG+jB34ohTsZv5JFR/Oq+9Il/jadZ+gT3yiJWxqZv3JWLMg4lk1HlgdHGHfvR4UErjuQyGmSREV/dB3lsmVSxvp1eqVqJxMtokFvGu/F1A0sGVeyso+vzyiRnvTtaxiG5ZbyXOwm0ZUpFnLSsofnziiROxiNExhqQsRLJ+LQmixTguo4zEyra4UL+f+ydMWvbQBTHb8ngqUtjYwgeQz05HdrBk0uDvkIIlAZKZsNhexa0QSIkaj2kqsABg2MNApkGY4yKh7aU1GpIwYVCQVOgQ8Z8hbzYSS6K5NggTsHn9xs9/7jn99d7dwaouIL1eUbxy1gFGU9HMv65kbFAOMEGGdXoKupvrSI2LbNNUMafd2XME36k2OsGEVXcP8JQcda5X0b4z1jlWqXTlHrRM0bd8sDEBO73zTgLhcupHXc3RMbDoYwS4cjTUZXWo6l4jIeiIBROQMbDMBnhd63H907vPI3+ONsZxaEcUWAylst+GauwSN3lK+NzSu2QKq3LsqwCysTG5t8nUDGNy36CMF5G2NPa6nJyka3uOyFVWplyt6BhgIp4Y5g4jJfRre+9JlzJJCjth4SM6jSbqIqH42GiUXCboTK2Sr82CWdSoNPnkF5anngs6sMbSnLYtIhFQMaT7aGMB+uLhB9Mxn7wU6A64Vg0K20DmxYRuSXjaNK7CTICfFVkMjoBGc17XTRlC+uzqPhl7IGMv7fe1ZcIX5iMRUuZ3kVTru0fYX0WFsknY7OstVrf+KvIZOw05ODavjnGRMvBUFFkbslYBh1P916uEv6wbtro75h3Ux0l3MSBgaGi2NzIuPtR09wPUKDjYyELdtnHMlMuPF/UK7XvAwMPReGR3Kuc8Utv+6C0RGIlSQHnq8IinYCMprJTazv4DMFcIF2H3vXS+iMSM5ksBey2rDMVAZWJaLUdgwKJHJZn8ZHWQEYXRsg2F0n8pJYpYBT7/xX/tU66Umn88Dr4DMFcsbGmPXvTff+KxA+zEej8HZyNOD/3bNugVyRyOKY4P2yQJy9WyYORWVmm40gncYkAiZVMPpemfrLpZAo9RB6IzONrsFFBLtqDAwEAAAAAQf7Wg1wBAAAAAAAAAAAAAAAAACwEPuPEwcQEp1gAAAAASUVORK5CYII=;" vertex="1" parent="1">
                    <mxGeometry x="60" y="110" width="658.99" height="330" as="geometry"/>
                </mxCell>
            </root>
        </mxGraphModel>
    </diagram>
</mxfile>